# xmcd CD database file
#
# Track frame offsets:
#	150
#	17249
#	32495
#	52110
#	69004
#	83359
#	101289
#	115333
#	126718
#	144578
#	158239
#	174917
#	196652
#	211819
#	228402
#	248734
#	275424
#	300852
#
# Disc length: 4244 seconds
#
# Revision: 1
# Processed by: cddbd v1.5.2PL0 Copyright (c) Steve Scherf et al.
# Submitted via: jetAudio 7
#
DISCID=e2109212
DTITLE=Various Artist - 30 Goue Country Sokkie Treffers CD2
DYEAR=2005
DGENRE=Pop
TTITLE0=Sandy Kent - Suds In The Bucket
TTITLE1=Don Stetson - Some Beach
TTITLE2=Kenny Rogers - She Believes In Me
TTITLE3=Ray Dylan and Niki Lalo - From This Moment
TTITLE4=Freda Francis - Every Little Thing
TTITLE5=Boots and Guns - Only In America
TTITLE6=Rocking Horse - Down South In Mew Orleans
TTITLE7=Pieter Naude - Little Bitty
TTITLE8=Hank Goldwyn - Red Dirt Road
TTITLE9=Ken Mullan - Forever and Ever
TTITLE10=Paul Buckby - If Tomorrow never Comes
TTITLE11=Kenny Oliver - The City Of New Orleans
TTITLE12=Rian Ungerer - Sha La La (I Need You)
TTITLE13=Kelly Blackwell - Forever And For Always (Dance Mix)
TTITLE14=A La Carte - River Blue
TTITLE15=The Diamonds - Geatest Country Hits Medley - Paloma Blanca,My 
TTITLE15=little 
TTITLE16=Die Bokjollers - Golden Country Medley - Blanket on the ground
TTITLE16=,ring o
TTITLE17=Freddie Ming - Joe Dolan Medley - More and more,It's you,It's yo
TTITLE17=u'It's 
EXTD=
EXTT0=
EXTT1=
EXTT2=
EXTT3=
EXTT4=
EXTT5=
EXTT6=
EXTT7=
EXTT8=
EXTT9=
EXTT10=
EXTT11=
EXTT12=
EXTT13=
EXTT14=
EXTT15=
EXTT16=
EXTT17=
PLAYORDER=
